<?xml version="1.0"?>
<svg xmlns="http://www.w3.org/2000/svg" viewBox="0 0 64 64" width="512" height="512"><g id="Filled_outline" data-name="Filled outline"><circle cx="53" cy="42" r="8" style="fill:#5a6470"/><circle cx="53" cy="42" r="4" style="fill:#cfdfe8"/><rect x="48" y="30.597" width="2" height="12.806" transform="matrix(0.781, -0.625, 0.625, 0.781, -12.376, 38.718)" style="fill:#1e2b38"/><path d="M24,36H36a4,4,0,0,1,4,4v4a0,0,0,0,1,0,0H24a0,0,0,0,1,0,0V36A0,0,0,0,1,24,36Z" style="fill:#1e2b38"/><path d="M57,23c0-6-4-9-10-9H43l2,6H33l-3,6H24V36H34v8h6V42A12,12,0,0,1,52,30h5V23Z" style="fill:#dd3e46"/><circle cx="11" cy="42" r="8" style="fill:#5a6470"/><circle cx="11" cy="42" r="4" style="fill:#cfdfe8"/><polygon points="24 44 10 44 10 40 24 36 24 44" style="fill:#dd3e46"/><rect x="12" y="26" width="12" height="4" style="fill:#1e2b38"/><polygon points="16 26 5 26 4 21 14 21 16 26" style="fill:#dd3e46"/><path d="M53,20v6h4V23a10.846,10.846,0,0,0-.4-3Z" style="fill:#f3bb59"/><path d="M45,20v6s-4,1-7,6H24V26h6l3-6Z" style="fill:#f3bb59"/><rect x="35" y="23" width="2" height="2" style="fill:#dd3e46"/><rect x="39" y="23" width="2" height="2" style="fill:#dd3e46"/><rect x="39" y="49" width="4" height="2" style="fill:#f3bb59"/><rect x="35" y="49" width="2" height="2" style="fill:#f3bb59"/><rect x="20" y="49" width="3" height="2" style="fill:#f3bb59"/><path d="M53,33a8.931,8.931,0,0,0-4.8,1.4l-1.586-1.982A10.927,10.927,0,0,1,52,31h5a1,1,0,0,0,1-1V23c0-6.262-4.112-10-11-10H43a1,1,0,0,0-.949,1.316L43.613,19H33a1,1,0,0,0-.9.553L29.382,25H16.677l-1.748-4.371A1,1,0,0,0,14,20H4a1,1,0,0,0-.98,1.2l1,5A1,1,0,0,0,5,27h6v3a1,1,0,0,0,1,1H23v4.245l-4.807,1.374A8.981,8.981,0,1,0,19.489,45H40a1,1,0,0,0,1-1V42a10.979,10.979,0,0,1,3.963-8.445l1.671,2.089A9,9,0,1,0,53,33Zm3-10v2H54V21h1.808A10.476,10.476,0,0,1,56,23ZM30,27a1,1,0,0,0,.895-.553L33.618,21H44v4.288A14.35,14.35,0,0,0,37.444,31H25V27ZM5.22,22h8.1l1.2,3H5.82ZM13,29V27H23v2ZM23,43H11V40.754l12-3.428ZM9.053,44.264a2.96,2.96,0,0,1-.011-4.518A.978.978,0,0,0,9,40v4A.967.967,0,0,0,9.053,44.264ZM11,49A7,7,0,1,1,16.1,37.218l-2.306.659A4.989,4.989,0,1,0,14.992,45h2.325A7,7,0,0,1,11,49ZM25,37h8v6H25Zm14,6H35V37h1a3,3,0,0,1,3,3v3Zm.994-5.976A4.98,4.98,0,0,0,36,35H25V33H38a1,1,0,0,0,.857-.485c2.727-4.545,6.354-5.536,6.386-5.545A1,1,0,0,0,46,26V20a1.9,1.9,0,0,0-.051-.316L44.387,15H47c2.566,0,6.453.615,8.151,4H53a1,1,0,0,0-1,1v6a1,1,0,0,0,1,1h3v2H52A13.018,13.018,0,0,0,39.994,37.024ZM53,49a6.989,6.989,0,0,1-5.1-11.777l1.277,1.6A4.949,4.949,0,0,0,48,42a5,5,0,1,0,5-5,4.935,4.935,0,0,0-2.265.568l-1.276-1.6A7,7,0,1,1,53,49Zm-.781-6.375,1.562-1.25-1.758-2.2A2.962,2.962,0,0,1,53,39a3.024,3.024,0,1,1-2.542,1.424Z"/><rect x="35" y="23" width="2" height="2"/><rect x="39" y="23" width="2" height="2"/><rect x="39" y="49" width="4" height="2"/><rect x="35" y="49" width="2" height="2"/><rect x="20" y="49" width="3" height="2"/></g></svg>
